# xmcd
#
# Track frame offsets:
#	150
#	19948
#	59505
#	125912
#	158279
#	191132
#	234305
#	242887
#	254045
#	270376
#
# Disc length: 3809 seconds
#
# Revision: 1
# Processed by: cddbd v1.5.2PL0 Copyright (c) Steve Scherf et al.
# Submitted via: audiograbber 1.83.01
#
DISCID=8c0edf0a
DTITLE=Alvin Lee and Ten Years Later - Live At Rockpalast [Grugahalle Essen 1978]
DYEAR=2013
DGENRE=Rock
TTITLE0=Gonna Turn You On [live]
TTITLE1=Help Me [live]
TTITLE2=Ain't Nothin' Shakin' [live]
TTITLE3=Just Another Boogie [live]
TTITLE4=Hey Joe [live]
TTITLE5=I'm Going Home [live]
TTITLE6=Choo Choo Mama [live]
TTITLE7=Rip It Up [live]
TTITLE8=Sweet Little Sixteen [live]
TTITLE9=Roll Over Beethoven [live]
EXTD=
EXTT0=
EXTT1=
EXTT2=
EXTT3=
EXTT4=
EXTT5=
EXTT6=
EXTT7=
EXTT8=
EXTT9=
PLAYORDER=
